<?xml version="1.0" standalone="no"?>
<!DOCTYPE svg PUBLIC "-//W3C//DTD SVG 20010904//EN"
  "http://www.w3.org/TR/2001/REC-SVG-20010904/DTD/svg10.dtd">
<svg version="1.0" xmlns="http://www.w3.org/2000/svg"
  width="986.000000pt" height="991.000000pt" viewBox="0 0 986.000000 991.000000"
  preserveAspectRatio="xMidYMid meet">

<g transform="translate(0.000000,991.000000) scale(0.100000,-0.100000)"
fill="#000000" stroke="none">
<path d="M4620 9894 c-434 -26 -828 -101 -1240 -236 -479 -158 -885 -365
-1315 -672 -160 -115 -259 -193 -405 -320 -89 -79 -367 -363 -464 -476 -517
-601 -894 -1353 -1065 -2123 -70 -312 -79 -375 -112 -732 -13 -150 -7 -656 10
-835 33 -347 119 -749 231 -1088 322 -977 938 -1832 1750 -2428 601 -442 1230
-724 1950 -873 243 -50 281 -56 570 -86 25 -2 162 -7 305 -11 912 -23 1813
208 2589 665 388 229 682 458 1009 786 710 713 1206 1697 1357 2695 11 74 25
164 31 200 37 230 39 802 4 1099 -46 389 -111 690 -227 1041 -183 555 -437
1039 -780 1487 -254 330 -574 653 -873 880 -6 5 -32 26 -60 48 -27 22 -57 45
-66 50 -10 6 -72 48 -140 93 -573 391 -1195 643 -1897 771 -234 42 -403 61
-617 66 -99 3 -216 7 -260 9 -44 1 -172 -3 -285 -10z m665 -245 c588 -47 1154
-198 1653 -441 739 -359 1353 -883 1839 -1568 236 -334 469 -799 600 -1200
161 -494 233 -939 234 -1458 1 -243 -13 -514 -31 -622 -5 -30 -14 -91 -20
-135 -42 -309 -165 -751 -297 -1074 -105 -257 -317 -650 -471 -875 -391 -568
-927 -1063 -1525 -1407 -162 -94 -452 -236 -607 -298 -380 -152 -869 -267
-1290 -305 -179 -16 -588 -19 -770 -7 -256 18 -649 86 -885 152 -155 44 -432
137 -485 164 -25 12 -58 25 -74 29 -32 8 -66 23 -253 112 -314 149 -628 352
-973 628 -108 86 -468 450 -586 591 -507 610 -833 1282 -1003 2070 -22 104
-58 339 -82 545 -16 133 -16 653 -1 820 71 757 287 1416 675 2060 291 482 735
965 1215 1323 755 562 1667 878 2612 906 247 7 330 6 525 -10z"/>
<path d="M5045 9501 c-3 -7 -4 -55 0 -109 3 -53 15 -241 25 -417 11 -176 23
-346 26 -377 6 -56 8 -58 40 -64 19 -3 57 -7 85 -8 l52 -1 29 105 c40 146 86
321 108 409 18 70 26 89 34 80 2 -2 6 -141 9 -308 4 -168 10 -308 15 -313 4
-4 43 -9 87 -10 l78 -3 74 230 c41 127 103 318 138 425 88 273 86 255 31 269
-44 11 -116 15 -116 7 0 -3 -22 -85 -49 -183 -27 -98 -64 -234 -81 -303 -18
-69 -36 -132 -40 -140 -14 -25 -19 60 -23 358 -3 197 -8 287 -16 295 -6 6 -42
13 -80 15 l-68 4 -51 -183 c-28 -101 -68 -246 -88 -321 -21 -75 -41 -135 -46
-132 -4 3 -8 105 -8 228 0 307 -8 434 -29 440 -45 13 -129 17 -136 7z"/>
<path d="M4620 9491 c-25 -4 -50 -10 -56 -13 -6 -4 -33 -56 -59 -115 -66 -149
-114 -243 -123 -243 -4 0 -16 62 -26 138 -9 75 -20 150 -23 166 l-5 29 -71 -7
c-40 -4 -76 -11 -81 -16 -9 -9 -4 -61 34 -380 45 -370 71 -555 78 -561 9 -8
143 8 153 18 5 5 4 40 -1 78 -28 215 -28 203 -4 254 25 55 37 66 52 48 5 -6
54 -84 107 -172 53 -88 102 -165 108 -171 9 -8 37 -8 104 0 50 6 94 14 98 17
3 4 -24 53 -61 110 -37 57 -114 178 -171 268 l-105 164 91 191 c50 105 91 194
91 199 0 8 -64 7 -130 -2z"/>
<path d="M3695 9325 c-290 -79 -290 -79 -293 -96 -3 -19 246 -890 258 -903 5
-5 78 10 177 38 309 88 333 96 333 114 -1 40 -48 177 -62 180 -8 2 -79 -15
-158 -38 -78 -22 -153 -40 -166 -40 -20 0 -26 9 -44 69 -11 37 -20 75 -20 83
0 15 26 24 203 74 66 18 97 31 97 41 0 8 -10 48 -22 89 -17 60 -25 74 -41 74
-11 0 -77 -16 -148 -36 -70 -20 -134 -34 -142 -31 -13 5 -47 105 -47 140 0 10
11 19 28 23 15 3 63 17 107 30 44 13 106 31 138 39 37 11 57 22 57 32 0 27
-45 163 -55 167 -6 2 -96 -20 -200 -49z"/>
<path d="M6327 9221 c-133 -54 -238 -187 -309 -391 -29 -86 -32 -106 -33 -215
0 -116 1 -123 33 -188 27 -55 44 -75 85 -102 203 -134 443 18 559 355 29 87
32 106 33 220 0 110 -3 131 -23 175 -47 101 -125 156 -232 162 -48 2 -78 -2
-113 -16z m133 -206 c94 -48 85 -234 -19 -406 -64 -107 -138 -144 -220 -110
-84 36 -89 192 -11 355 70 147 163 206 250 161z"/>
<path d="M2858 8994 c-38 -19 -68 -35 -68 -37 0 -1 29 -137 65 -302 36 -165
82 -376 102 -470 19 -93 40 -174 44 -179 11 -12 149 53 149 70 0 7 -7 45 -15
84 -8 40 -12 76 -9 81 7 12 180 99 196 99 7 0 38 -28 69 -62 l57 -63 68 37
c38 20 69 43 69 51 0 8 -117 146 -260 307 -314 355 -375 420 -389 420 -6 -1
-41 -17 -78 -36z m243 -370 c52 -63 95 -119 97 -124 2 -5 -24 -23 -56 -39 -46
-23 -62 -28 -70 -18 -6 7 -25 68 -42 137 -17 69 -33 133 -36 143 -12 38 17 12
107 -99z"/>
<path d="M7051 8912 c-14 -20 -101 -156 -194 -302 -93 -146 -194 -303 -224
-348 -30 -46 -57 -90 -59 -97 -3 -8 19 -30 57 -56 60 -41 63 -42 77 -23 22 30
270 412 282 434 13 25 29 26 24 3 -2 -10 -19 -99 -39 -198 -19 -99 -41 -209
-49 -245 -7 -36 -16 -84 -20 -108 l-6 -42 62 -40 c35 -22 70 -40 78 -39 12 0
281 402 477 716 l43 67 -25 26 c-14 15 -43 37 -65 49 l-39 22 -35 -48 c-19
-26 -80 -120 -135 -208 -98 -156 -138 -212 -145 -204 -2 2 18 112 45 244 26
132 51 265 55 297 l6 56 -63 41 c-35 22 -68 41 -74 41 -5 0 -21 -17 -34 -38z"/>
<path d="M2465 8773 c-27 -21 -125 -93 -217 -161 -93 -68 -168 -128 -168 -134
0 -15 104 -157 115 -158 6 0 42 23 80 50 38 28 74 50 80 50 5 -1 62 -73 125
-162 211 -295 305 -418 318 -418 13 0 132 77 132 85 0 4 -94 134 -353 490 -24
33 -52 72 -61 87 l-18 27 59 45 c32 25 67 52 78 59 19 14 19 15 -8 53 -69 100
-84 119 -97 121 -8 2 -37 -14 -65 -34z"/>
<path d="M4622 8330 c-334 -34 -702 -127 -1012 -255 -117 -48 -355 -174 -461
-242 -534 -346 -920 -768 -1204 -1317 -185 -356 -289 -691 -350 -1123 -22
-156 -30 -502 -16 -683 50 -627 274 -1238 636 -1736 336 -460 758 -813 1273
-1065 340 -166 657 -259 1054 -310 210 -27 598 -29 788 -4 792 102 1442 420
1999 976 453 453 780 1064 905 1689 56 286 71 461 63 773 -10 401 -75 729
-227 1143 -91 247 -97 262 -177 396 -35 59 -67 116 -71 126 -11 28 -225 342
-233 342 -3 0 -42 42 -84 93 -296 350 -640 623 -1060 839 -376 193 -697 291
-1140 349 -103 14 -575 20 -683 9z m433 -2081 c17 -7 64 -37 106 -65 42 -29
103 -60 135 -69 54 -16 69 -17 169 -4 219 26 285 15 360 -60 44 -44 50 -53 85
-115 18 -32 55 -81 81 -111 51 -55 58 -72 37 -93 -20 -20 -48 -14 -97 23 -60
44 -109 54 -251 55 -168 1 -245 18 -401 88 -163 74 -215 86 -351 81 -114 -5
-105 -1 -226 -91 -35 -26 -54 -33 -105 -36 -34 -2 -89 1 -122 6 -118 20 -328
-36 -410 -107 -39 -34 -113 -61 -196 -72 -134 -18 -319 -87 -319 -119 0 -12
65 -24 88 -17 9 3 37 13 62 22 50 19 186 16 231 -5 92 -43 147 -246 135 -505
-5 -110 -2 -203 10 -348 20 -225 13 -315 -29 -368 -28 -36 -49 -43 -118 -42
-65 1 -108 20 -162 72 -41 39 -128 153 -142 186 -4 11 -11 112 -15 225 -5 138
-13 226 -24 270 -22 85 -91 295 -128 388 -37 96 -36 125 8 192 20 30 43 68 51
84 8 16 27 40 41 53 25 23 111 71 142 79 88 22 110 25 143 21 63 -8 121 18
161 72 44 60 89 97 135 112 20 6 41 15 46 19 6 4 40 13 77 19 62 11 72 10 139
-14 104 -36 143 -34 185 11 19 19 34 41 34 47 0 44 137 129 220 137 74 7 178
-3 215 -21z m84 -389 c29 -5 69 -17 88 -27 59 -28 150 -119 180 -181 26 -54
28 -65 27 -182 0 -117 -3 -135 -46 -285 -25 -88 -49 -173 -52 -190 -29 -130
-39 -193 -61 -360 -39 -296 -48 -328 -102 -365 -33 -23 -46 -25 -142 -24 -127
0 -174 12 -228 58 -58 50 -68 93 -60 269 4 78 9 153 11 167 14 83 14 136 1
220 -14 91 -20 180 -29 460 -2 69 -12 160 -21 203 -21 100 -14 128 38 171 48
38 63 44 172 61 102 16 159 18 224 5z m-622 -91 c56 -27 96 -77 119 -147 17
-51 19 -84 15 -292 -6 -426 -6 -503 3 -660 19 -337 -49 -445 -261 -412 -85 14
-143 46 -180 101 -40 60 -46 102 -39 301 3 102 9 269 12 371 8 225 -2 292 -57
403 -44 90 -45 93 -23 165 19 67 82 136 149 167 69 32 199 33 262 3z m1258
-46 c195 -79 294 -146 328 -222 17 -39 19 -59 14 -160 -7 -174 -40 -303 -122
-487 -13 -27 -39 -104 -60 -170 -128 -419 -148 -461 -243 -516 -51 -29 -58
-30 -145 -26 -107 4 -157 26 -196 86 -43 66 -40 191 9 367 6 22 16 63 21 90 5
28 16 75 24 105 9 32 19 136 25 250 17 340 50 603 85 670 15 28 42 55 65 62
28 10 85 -5 195 -49z m-3187 -149 c9 -3 12 -23 10 -71 l-3 -68 -244 -3 c-140
-1 -248 2 -255 7 -7 6 -10 34 -8 75 3 50 7 66 20 69 21 5 462 -3 480 -9z m308
4 c1 -2 5 -107 7 -233 l4 -230 62 -3 61 -3 2 238 3 237 90 -3 c50 -1 93 -6 97
-10 4 -4 8 -272 8 -596 1 -506 -1 -590 -14 -597 -8 -5 -50 -6 -92 -4 -64 4
-80 8 -85 23 -4 10 -7 126 -8 257 -1 132 -4 243 -7 248 -9 13 -114 10 -116 -4
-2 -7 -3 -125 -3 -263 l0 -250 -85 0 -85 0 -3 590 c-2 519 -1 591 13 601 13 9
141 11 151 2z m4494 -83 c0 -77 -10 -109 -81 -248 -11 -21 -17 -43 -14 -48 4
-5 42 -9 86 -9 l80 0 -3 -87 -3 -88 -120 -3 -120 -3 -75 -135 c-41 -74 -84
-149 -95 -167 l-21 -32 -119 -3 c-65 -1 -123 2 -128 7 -5 5 4 29 25 62 46 73
148 254 148 262 0 4 -44 7 -97 7 -54 0 -104 4 -111 9 -9 5 -12 30 -10 87 l3
79 146 3 146 3 56 108 56 108 -121 6 c-67 4 -159 7 -205 7 l-83 0 0 74 0 74
330 1 330 2 0 -76z m416 50 c4 -16 -1 -952 -5 -962 -1 -2 -44 -3 -96 -3 -77 0
-97 3 -101 15 -4 9 -7 53 -8 98 l-1 82 -155 5 -155 5 2 90 c1 50 2 93 2 98 1
4 69 7 152 6 83 0 153 1 155 4 3 3 5 133 4 290 0 187 3 286 10 289 5 1 51 3
100 3 83 0 91 -2 96 -20z m-5210 -247 c5 -7 9 -42 9 -78 l0 -65 -140 -2 c-77
-2 -150 -5 -163 -8 l-23 -6 3 -292 3 -292 160 -5 160 -5 0 -75 0 -75 -246 -1
c-135 -1 -252 2 -260 7 -12 7 -14 83 -16 436 -1 235 0 438 3 451 l4 22 249 0
c188 0 251 -3 257 -12z m3614 -410 c52 -64 112 -179 134 -256 13 -45 13 -56 2
-67 -7 -8 -16 -35 -19 -62 -16 -125 -19 -192 -10 -208 18 -32 -85 -251 -172
-365 -23 -30 -67 -94 -99 -141 -135 -203 -198 -245 -359 -237 -109 5 -160 24
-251 97 -76 61 -149 91 -220 91 -64 0 -152 15 -184 32 -77 40 -91 268 -20 321
27 20 33 21 180 9 107 -8 189 -20 273 -42 66 -17 152 -33 190 -36 l70 -6 48
42 c64 56 131 153 166 237 16 39 36 85 44 104 37 79 119 352 135 447 20 121
25 123 92 40z m820 -338 l5 -35 385 -5 385 -5 3 -66 c2 -36 -1 -75 -5 -87 l-8
-22 -380 0 c-209 -1 -441 -1 -516 0 l-137 0 -4 123 c-3 67 -3 126 -1 130 3 4
64 6 136 5 l132 -3 5 -35z m-2759 -348 c37 -29 83 -33 222 -21 115 11 130 10
145 -4 27 -28 5 -67 -57 -99 -51 -27 -60 -28 -187 -28 -173 0 -196 11 -210 98
-10 64 36 93 87 54z m-213 -25 c4 -22 -57 -84 -90 -92 -38 -10 -104 12 -133
43 -23 24 -32 52 -21 63 3 2 58 4 123 3 103 0 118 -3 121 -17z"/>
<path d="M8050 8053 c-47 -41 -177 -156 -290 -255 -252 -220 -310 -274 -310
-292 0 -18 177 -224 221 -257 118 -89 285 -74 439 40 198 145 302 298 302 441
0 80 -23 138 -84 207 -109 125 -144 167 -151 179 -15 26 -42 13 -127 -63z m99
-234 c90 -105 73 -200 -56 -318 -138 -127 -233 -140 -324 -46 -24 25 -44 53
-44 62 0 17 362 343 380 342 6 0 25 -18 44 -40z"/>
<path d="M7366 8044 l-57 -67 28 -30 c46 -49 175 -157 187 -156 6 0 35 29 64
65 47 56 52 67 40 81 -24 29 -188 173 -197 173 -5 0 -34 -30 -65 -66z"/>
<path d="M1399 7798 c-27 -29 -49 -58 -49 -65 0 -6 28 -35 63 -63 34 -29 191
-166 350 -304 158 -138 293 -251 299 -251 6 0 43 37 82 82 39 44 105 120 146
168 41 47 76 92 78 99 1 7 -30 41 -69 76 l-72 64 -51 -55 c-28 -30 -74 -81
-102 -114 -50 -57 -53 -58 -76 -43 -12 8 -111 91 -218 184 -266 230 -299 258
-316 267 -11 7 -29 -5 -65 -45z"/>
<path d="M1073 7311 c-11 -7 -83 -128 -83 -139 0 -9 684 -692 693 -692 3 0 25
32 48 71 l42 70 -62 63 -63 63 52 94 c29 52 56 98 61 103 5 5 41 0 89 -14 48
-14 85 -19 90 -14 5 5 25 38 45 73 26 47 32 66 24 72 -13 8 -67 23 -459 131
-404 110 -467 126 -477 119z m362 -252 c72 -23 134 -45 139 -49 11 -11 -51
-120 -68 -120 -13 0 -86 63 -189 163 -62 59 -52 60 118 6z"/>
<path d="M8500 7306 c-127 -38 -255 -105 -341 -178 -93 -78 -169 -217 -169
-308 0 -101 69 -210 157 -248 69 -29 121 -35 207 -23 214 30 449 189 528 358
72 151 27 312 -105 380 -43 22 -68 27 -142 29 -55 2 -107 -2 -135 -10z m160
-191 c34 -17 60 -62 60 -100 0 -73 -89 -172 -215 -237 -69 -36 -91 -42 -155
-45 -94 -5 -132 14 -151 77 -18 59 0 108 63 170 121 120 307 182 398 135z"/>
<path d="M745 6698 c-35 -97 -43 -128 -32 -135 7 -4 122 -44 257 -88 135 -45
244 -85 243 -91 -2 -5 -87 -15 -190 -21 -104 -7 -235 -16 -293 -20 l-105 -8
-22 -65 c-34 -104 -35 -104 55 -133 447 -146 799 -260 806 -261 14 -2 44 65
52 111 l6 39 -254 83 c-139 46 -257 87 -262 92 -14 13 22 17 314 34 151 9 278
19 281 23 13 14 51 143 46 156 -3 8 -99 44 -214 81 -114 37 -311 100 -437 141
-125 41 -232 74 -237 74 -5 0 -12 -6 -14 -12z"/>
<path d="M9195 6224 c-375 -85 -760 -176 -800 -188 -40 -13 -40 -14 -38 -60 2
-25 9 -62 18 -81 12 -29 18 -35 37 -30 13 3 88 20 168 39 80 19 149 31 153 27
4 -4 21 -61 37 -126 16 -64 32 -120 35 -123 6 -6 112 14 151 28 27 11 27 16
-13 169 -13 52 -20 97 -16 101 11 10 137 40 167 40 23 0 26 -7 56 -134 17 -74
37 -141 43 -150 11 -15 19 -15 92 5 44 11 82 22 84 25 4 4 -46 229 -86 389
-19 74 -29 82 -88 69z"/>
<path d="M745 5834 c-167 -35 -248 -91 -297 -204 -24 -56 -17 -153 17 -220 65
-129 254 -221 485 -236 106 -7 234 12 299 46 133 68 198 186 171 308 -32 146
-169 252 -383 297 -62 14 -243 19 -292 9z m290 -187 c68 -19 104 -39 145 -82
29 -29 34 -43 34 -76 -2 -48 -27 -85 -75 -114 -30 -17 -51 -20 -164 -19 -110
1 -139 4 -189 24 -191 74 -192 240 -3 280 53 11 186 4 252 -13z"/>
<path d="M9379 5526 c-2 -2 -69 -7 -149 -10 -80 -4 -197 -11 -260 -16 -63 -5
-197 -14 -297 -21 -100 -7 -187 -15 -194 -19 -9 -6 -8 -68 6 -275 l19 -267
100 7 c56 4 104 12 107 17 4 6 5 27 3 47 -11 97 -23 305 -19 309 3 3 43 8 90
10 99 5 91 19 100 -158 9 -175 2 -164 103 -156 47 3 88 8 90 11 2 2 0 73 -5
157 -5 84 -7 156 -3 160 3 5 40 11 82 14 91 8 82 26 96 -188 6 -81 13 -151 16
-157 8 -12 166 -3 180 10 12 10 -23 499 -37 517 -9 12 -20 15 -28 8z"/>
<path d="M1166 5013 c-1 -1 -123 -3 -271 -4 -149 -1 -316 -4 -373 -7 l-102 -5
0 -84 0 -84 443 6 c243 3 457 8 475 11 l32 5 0 79 c0 56 -4 81 -12 82 -18 2
-189 3 -192 1z"/>
<path d="M8503 4808 c-12 -15 -20 -88 -29 -265 -6 -119 -6 -124 20 -177 65
-132 230 -209 473 -222 218 -11 364 54 423 189 15 34 26 94 37 202 9 85 13
160 10 167 -3 10 -60 20 -188 36 -101 12 -245 29 -319 38 -74 10 -153 18 -175
20 -115 8 -202 16 -221 20 -11 3 -25 -1 -31 -8z m382 -212 c77 -8 176 -18 220
-22 110 -9 113 -11 104 -76 -12 -88 -35 -126 -96 -157 -33 -17 -230 -14 -292
5 -74 22 -120 67 -132 129 -8 43 -6 94 7 133 2 7 13 10 26 8 13 -3 86 -12 163
-20z"/>
<path d="M486 4640 c-27 -5 -53 -13 -58 -18 -7 -7 66 -549 76 -559 2 -2 46 2
97 10 109 15 107 13 91 133 -6 38 -7 72 -3 76 3 3 40 11 81 17 41 6 200 29
353 51 152 22 280 40 284 40 12 0 -6 144 -20 157 -11 11 -26 12 -78 4 -69 -11
-461 -65 -572 -79 -46 -6 -70 -5 -76 2 -5 6 -15 47 -23 91 l-14 80 -44 2 c-25
0 -67 -3 -94 -7z"/>
<path d="M995 4045 c-226 -135 -412 -253 -413 -262 -5 -19 26 -133 40 -150 7
-9 52 -11 166 -8 435 13 528 15 660 15 119 0 144 3 149 15 3 9 -5 48 -18 87
l-24 72 -82 -3 c-58 -2 -83 1 -89 11 -10 15 -63 187 -64 205 0 7 32 31 70 53
53 31 70 46 70 63 0 31 -36 141 -46 144 -5 2 -193 -108 -419 -242z m170 -146
c7 -19 16 -49 19 -66 l7 -31 -63 -6 c-158 -13 -250 -16 -246 -6 4 13 250 150
262 146 5 -1 15 -18 21 -37z"/>
<path d="M8402 4083 c-24 -48 -164 -482 -160 -494 3 -8 47 -28 97 -44 71 -23
94 -26 100 -17 4 7 29 79 55 160 27 81 53 152 60 159 8 9 27 6 78 -12 38 -13
73 -27 78 -30 13 -8 12 -11 -47 -179 -37 -104 -43 -130 -32 -137 23 -14 161
-59 169 -54 4 2 29 70 56 150 35 105 53 145 64 145 24 0 140 -41 140 -49 0 -4
-24 -79 -54 -167 -33 -97 -51 -163 -45 -169 5 -5 44 -22 87 -37 59 -21 80 -24
88 -15 6 7 47 119 92 250 l81 237 -22 14 c-12 8 -65 29 -117 46 -91 31 -140
48 -435 155 -152 54 -304 105 -316 105 -5 0 -12 -8 -17 -17z"/>
<path d="M1285 3425 c-181 -91 -333 -165 -336 -165 -19 -1 -159 -86 -159 -96
0 -25 54 -124 67 -124 14 0 194 85 376 177 60 30 113 53 118 51 6 -2 -68 -91
-163 -197 -95 -107 -186 -210 -202 -229 l-29 -34 36 -74 c20 -41 41 -74 46
-74 10 0 822 398 838 412 9 7 4 25 -20 74 -17 35 -37 64 -44 64 -12 0 -73 -28
-367 -169 -70 -34 -130 -60 -133 -58 -5 5 46 64 237 272 74 81 141 155 149
166 12 17 9 28 -22 94 -20 41 -42 75 -49 74 -7 0 -161 -74 -343 -164z"/>
<path d="M8187 3468 c-46 -75 -68 -121 -64 -132 3 -7 60 -43 128 -80 68 -37
132 -76 142 -86 18 -17 18 -19 -13 -74 -45 -80 -67 -92 -133 -77 -29 6 -84 27
-122 46 -39 19 -85 37 -102 41 -30 6 -32 3 -67 -58 -42 -76 -43 -84 -13 -93
12 -4 76 -33 142 -64 113 -53 124 -56 197 -56 l76 0 11 -35 c33 -110 232 -230
337 -204 86 21 131 62 194 179 24 44 63 117 87 162 l44 82 -38 24 c-21 14 -96
57 -168 96 -71 39 -161 90 -200 112 -38 23 -146 84 -240 136 -93 52 -173 97
-177 99 -4 3 -13 -6 -21 -18z m501 -460 c39 -23 72 -48 72 -55 0 -22 -60 -122
-83 -138 -29 -20 -53 -19 -104 6 -47 23 -77 66 -66 96 3 10 22 46 42 81 40 71
33 70 139 10z"/>
<path d="M1890 2941 c-25 -25 -78 -77 -117 -114 -74 -70 -103 -116 -103 -161
0 -25 -3 -26 -50 -26 -137 0 -291 -118 -318 -244 -14 -67 4 -130 58 -203 99
-132 192 -243 202 -243 5 0 56 36 112 80 55 44 137 109 181 144 306 241 422
335 434 349 12 15 8 24 -31 74 -25 31 -49 58 -55 60 -5 2 -67 -42 -137 -97
-71 -55 -132 -100 -136 -100 -4 0 -28 25 -54 56 -75 91 -63 130 79 259 47 42
85 82 85 88 0 15 -88 127 -98 126 -4 -1 -27 -23 -52 -48z m-236 -467 c21 -8
119 -131 114 -143 -4 -14 -149 -121 -162 -121 -22 1 -106 121 -106 151 0 69
93 136 154 113z"/>
<path d="M7840 2886 c-27 -35 -50 -68 -50 -74 0 -5 20 -36 45 -68 25 -31 45
-64 45 -72 0 -15 -86 -137 -117 -164 -17 -15 -23 -14 -82 13 -35 16 -71 29
-81 29 -25 0 -116 -119 -104 -137 9 -14 59 -38 294 -138 74 -32 160 -69 190
-82 30 -14 89 -40 130 -58 41 -18 95 -41 120 -52 25 -11 69 -30 97 -43 52 -23
53 -23 74 -4 40 36 91 114 85 130 -3 9 -46 68 -96 132 -104 136 -445 594 -463
622 -21 35 -36 30 -87 -34z m269 -483 c45 -56 81 -104 81 -108 0 -13 -48 5
-146 52 -53 25 -98 52 -101 59 -5 14 65 107 77 102 5 -2 44 -49 89 -105z"/>
<path d="M2369 2437 c-21 -16 -119 -128 -119 -136 0 -4 52 -54 117 -111 142
-129 143 -129 143 -142 0 -5 -26 -37 -58 -70 l-58 -60 -115 101 c-63 55 -119
101 -126 101 -11 0 -123 -118 -123 -130 0 -4 52 -53 115 -110 63 -58 115 -109
115 -115 0 -6 -25 -35 -55 -65 -50 -49 -56 -52 -72 -39 -20 17 -174 151 -213
187 -14 12 -30 22 -36 22 -5 0 -36 -30 -68 -67 l-58 -67 54 -51 c123 -118 324
-295 334 -295 6 0 42 35 79 78 38 42 75 84 84 92 9 9 52 56 96 105 44 50 96
107 115 129 19 21 40 44 45 50 6 6 48 54 95 106 47 52 93 103 103 114 23 27
22 38 -10 66 -16 13 -102 91 -193 172 -90 81 -167 148 -170 148 -3 0 -12 -6
-21 -13z"/>
<path d="M7347 2323 c-82 -69 -82 -69 14 -175 46 -51 94 -104 107 -118 62 -67
278 -313 284 -325 5 -9 -15 -35 -62 -78 l-70 -65 27 -34 c43 -54 106 -118 116
-118 10 0 50 33 132 109 28 25 93 84 145 131 52 47 105 95 119 106 13 12 22
27 20 32 -6 18 -113 140 -128 146 -7 4 -41 -19 -81 -54 -37 -33 -70 -60 -72
-60 -3 0 -52 53 -109 117 -319 358 -379 423 -389 423 -5 0 -29 -17 -53 -37z"/>
<path d="M6989 2027 c-38 -25 -64 -49 -63 -59 2 -17 511 -788 521 -788 15 0
132 86 133 97 0 11 -462 709 -510 771 l-18 22 -63 -43z"/>
<path d="M2984 1868 c-26 -40 -61 -95 -79 -123 -17 -27 -83 -133 -145 -233
-62 -101 -119 -186 -127 -189 -7 -3 -46 14 -86 38 -39 24 -75 45 -78 47 -10 4
-111 -167 -105 -177 4 -5 84 -58 179 -117 94 -58 196 -122 224 -140 29 -19 58
-34 65 -34 11 0 108 147 108 163 0 4 -34 29 -75 57 -41 28 -75 56 -75 62 0 6
13 32 28 57 16 25 58 93 94 151 192 308 250 403 254 414 4 10 -60 57 -128 93
-4 2 -29 -29 -54 -69z"/>
<path d="M6561 1788 c-63 -24 -125 -83 -153 -145 -76 -171 18 -478 202 -664
127 -128 291 -157 409 -72 81 58 115 135 115 263 -1 103 -27 199 -90 320 -81
158 -183 260 -298 300 -70 25 -117 25 -185 -2z m187 -209 c93 -46 202 -244
202 -369 0 -100 -35 -140 -121 -140 -81 0 -142 58 -217 208 -42 84 -46 99 -46
167 -1 59 3 79 20 102 42 56 91 66 162 32z"/>
<path d="M3409 1684 c-6 -16 -26 -72 -44 -124 -32 -92 -108 -303 -145 -405
-48 -132 -120 -339 -120 -345 0 -12 131 -53 141 -43 9 9 82 198 155 403 19 52
38 98 43 103 5 5 12 -67 15 -170 4 -98 10 -236 14 -308 l7 -129 75 -28 c41
-15 78 -24 82 -20 4 4 29 68 56 142 28 74 82 223 122 330 40 107 89 243 110
303 l38 107 -21 15 c-32 22 -118 48 -127 39 -5 -5 -47 -117 -95 -250 -87 -242
-100 -273 -109 -263 -3 2 -8 136 -12 297 -5 186 -11 297 -18 306 -6 8 -36 23
-66 34 -30 11 -63 23 -72 27 -13 5 -20 0 -29 -21z"/>
<path d="M6058 1552 c-28 -9 -48 -22 -48 -30 0 -8 30 -129 66 -269 36 -140 63
-258 60 -261 -3 -3 -7 -3 -9 -1 -2 2 -26 33 -53 69 -28 36 -103 138 -168 227
-65 89 -124 168 -132 174 -11 9 -29 8 -77 -6 -97 -27 -96 -26 -82 -82 7 -26
39 -145 70 -263 32 -118 77 -289 101 -380 25 -91 47 -177 50 -192 8 -33 26
-35 102 -13 32 10 52 21 52 30 0 8 -29 130 -65 272 -36 141 -63 259 -60 262 3
2 12 -4 20 -15 7 -10 81 -110 164 -221 82 -112 156 -212 165 -225 l15 -22 81
20 c90 21 91 22 66 110 -8 27 -44 164 -80 304 -36 140 -77 298 -91 350 -14 52
-30 114 -36 138 -13 48 -29 52 -111 24z"/>
<path d="M4081 1458 c-5 -12 -37 -142 -70 -288 -33 -146 -76 -336 -96 -423
-20 -87 -35 -167 -33 -179 2 -17 14 -25 53 -35 102 -26 96 -32 134 130 18 78
48 207 68 287 41 174 100 436 105 469 2 20 -3 26 -32 36 -20 7 -55 16 -78 20
-38 6 -43 4 -51 -17z"/>
<path d="M4872 1061 c-137 -47 -198 -193 -133 -319 25 -48 55 -76 111 -101
188 -85 378 119 285 306 -29 57 -74 96 -136 118 -52 19 -62 18 -127 -4z"/>
</g>
</svg>
